<?xml version="1.0" encoding="UTF-8"?>
<!-- Created with Inkscape (http://www.inkscape.org/) -->
<svg width="101.84" height="38.846" version="1.1" viewBox="0 0 101.84 38.846" xml:space="preserve" xmlns="http://www.w3.org/2000/svg"><g transform="translate(-245.06 -466)"><path d="m278.59 491.53c-2.0371 4.3378-6.1032 7.2185-10.68 7.2185-4.5734 0-8.6368-2.8768-10.675-7.2095-1.1385 0.75881-2.5 1.2031-3.9587 1.2031-0.39487 0-0.78221-0.0338-1.1605-0.0964 2.6367 6.5719 8.6582 11.265 15.795 11.265 7.1347 0 13.155-4.6906 15.792-11.26-0.37123 0.0601-0.75096 0.0919-1.1381 0.0919-1.4645 0-2.8328-0.44768-3.9744-1.212z" style="-inkscape-stroke:none;color:#000000;fill-rule:evenodd;fill:#74e0c0;font-variation-settings:normal;paint-order:markers fill stroke;stop-color:#000000"/><path d="m267.91 466.51c-7.3955 0-13.594 5.0416-16.068 11.99 0.46355-0.0952 0.94383-0.14563 1.4338-0.14563 1.3598 0 2.6367 0.38416 3.7257 1.0507 1.9497-4.6229 6.1537-7.7338 10.908-7.7338 4.7584 0 8.9651 3.116 10.913 7.7449 1.093-0.67271 2.3749-1.0619 3.7414-1.0619 0.48302 0 0.95411 0.0508 1.4114 0.14338-2.475-6.9475-8.6711-11.988-16.066-11.988z" style="-inkscape-stroke:none;color:#000000;fill-rule:evenodd;fill:#2773c9;font-variation-settings:normal;paint-order:markers fill stroke;stop-color:#000000"/><path d="m282.57 478.36c-3.9453 0-7.1916 3.244-7.1916 7.1893 0 3.9453 3.2463 7.1916 7.1916 7.1916 3.9453 0 7.1893-3.2463 7.1893-7.1916 0-3.9453-3.244-7.1893-7.1893-7.1893zm0 4.3575c1.5896 0 2.8296 1.2422 2.8296 2.8318 0 1.5896-1.24 2.8318-2.8296 2.8318-1.5896 0-2.8318-1.2422-2.8318-2.8318 0-1.5896 1.2422-2.8318 2.8318-2.8318z" style="-inkscape-stroke:none;color:#000000;fill-rule:evenodd;fill:#2773c9;font-variation-settings:normal;paint-order:markers fill stroke;stop-color:#000000"/><path d="m253.28 478.36c-3.9453 0-7.1916 3.244-7.1916 7.1893 0 3.9453 3.2463 7.1916 7.1916 7.1916 3.9453 0 7.1893-3.2463 7.1893-7.1916 0-3.9453-3.244-7.1893-7.1893-7.1893zm0 4.3575c1.5896 0 2.8318 1.2422 2.8318 2.8318 0 1.5896-1.2422 2.8318-2.8318 2.8318-1.5896 0-2.8318-1.2422-2.8318-2.8318 0-1.5896 1.2422-2.8318 2.8318-2.8318z" style="-inkscape-stroke:none;color:#000000;fill-rule:evenodd;fill:#74e0c0;paint-order:markers fill stroke"/><path d="m335.26 478.71v14.285h3.6828v-4.9567h1.5034c1.8178 0 3.2122-0.40184 4.1818-1.2055 0.97589-0.81006 1.4616-1.9631 1.4616-3.462 0-1.4925-0.48573-2.6406-1.4616-3.4443-0.96951-0.81005-2.3639-1.2166-4.1818-1.2166zm3.6828 2.6694h1.1104c0.71439 0 1.2669 0.17221 1.6559 0.51664 0.38909 0.34443 0.5829 0.83704 0.5829 1.4749 0 0.63783-0.19381 1.1307-0.5829 1.4815-0.38906 0.34443-0.94153 0.51664-1.6559 0.51664h-1.1104z" style="fill:#2773c9"/><path d="m328.66 478.39c-2.3592 0.12334-4.2642 0.73197-5.6547 2.065-1.3905 1.3267-2.0858 3.1315-2.0858 5.415 0 2.2771 0.69532 4.0819 2.0858 5.415 1.3905 1.3267 3.2783 1.8784 5.6547 1.9917 0.84001 0.04 1.4468 0.0135 2.2964-0.11708 0.54045-0.0832 1.0469-0.22712 1.5481-0.44682v-2.8677c-0.48921 0.28648-0.96437 0.46772-1.454 0.58795-0.76137 0.18696-1.3408 0.24723-2.0948 0.17311-1.3076-0.12856-2.3458-0.41939-3.0984-1.2613-0.75264-0.84194-1.1291-2.0014-1.1291-3.4748 0-1.4798 0.3765-2.6396 1.1291-3.4815 0.75266-0.84192 1.7879-1.1696 3.0984-1.2636 0.76798-0.0551 1.3848 0.0738 2.0948 0.26399 0.48707 0.1305 0.96472 0.32817 1.454 0.61473v-2.8699c-0.50114-0.21968-1.0168-0.39489-1.5481-0.52425-0.73349-0.17853-1.5002-0.26109-2.2964-0.21947z" style="fill:#2773c9"/><path d="m309.86 478.71v2.7848h3.3852v11.5h3.6832v-11.5h3.3874v-2.7848h-3.6832z" style="fill:#2773c9"/><path d="m302.84 478.48c-1.6479 0.13775-2.6809 0.44456-3.5315 1.2056-0.85057 0.76108-1.351 1.8433-1.351 3.2306 0 1.3874 0.4394 2.2558 1.0596 2.9028 0.62022 0.64692 1.5777 0.98616 3.0103 1.37 0.84579 0.16733 1.8113 0.62233 2.2546 0.98321 0.23126 0.24611 0.38983 0.51337 0.38983 0.89391 0 0.5074-0.19642 0.87895-0.58474 1.1224-0.61849 0.38784-1.641 0.50933-2.6414 0.34725-0.98662-0.15986-2.346-0.48697-3.0536-0.82669v3.0066c1.3164 0.37619 3.2988 0.66205 5.0587 0.4884 1.5871-0.15661 2.8191-0.3815 3.6697-1.1426 0.85057-0.76108 1.2748-1.8476 1.2748-3.262l-2e-3 -2e-3c1e-3 -0.0547 2e-3 -0.11001 2e-3 -0.1658 0-1.1924-0.30954-2.111-0.92976-2.7579-0.62022-0.64693-1.6657-1.1279-3.1365-1.445-0.84581-0.16732-1.7803-0.5602-2.2561-0.85806-0.2599-0.21564-0.38982-0.51336-0.38982-0.8939 0-0.50739 0.19642-0.87895 0.58473-1.1224 0.6185-0.38783 1.6411-0.51158 2.6414-0.3495 0.98662 0.15987 1.9114 0.35705 2.619 0.69677v-3.0066c-1.5232-0.45347-2.9928-0.55665-4.6884-0.41492z" style="fill:#2773c9"/></g></svg>
